
        <svg xmlns="http://www.w3.org/2000/svg" xmlns:xlink="http://www.w3.org/1999/xlink" version="1.1" width="3171.4285714285716" height="676.2293803347809" viewBox="0 0 3171.4285714285716 676.2293803347809">
			
			<g transform="scale(8.571428571428573) translate(10, 10)">
				<defs id="SvgjsDefs4177"/><g id="SvgjsG4178" featureKey="K5GtsI-0" transform="matrix(4.2006717382784595,0,0,4.2006717382784595,-4.116655379079784,-25.12001507199027)" fill="#A8743F"><path d="M12.22 6 l0 0.08 l-6.22 6.7 l6.74 7.06 l0 0.16 l-3.26 0 l-5.86 -6.2 l0 6.2 l-2.64 0 l0 -14 l2.64 0 l0 5.92 l5.32 -5.92 l3.28 0 z M25.2 20 l-1.18 -2.64 l-7.32 0 l-1.2 2.64 l-2.86 0 l6.28 -14 l2.88 0 l6.28 14 l-2.88 0 z M22.96 14.9 l-2.6 -5.96 l-2.6 5.96 l5.2 0 z M29.06 6 l2.64 0 l0 11.56 l7.2 0 l0 2.44 l-9.84 0 l0 -14 z M43.4 20 l-2.62 0 l0 -14 l2.62 0 l0 14 z M48.519999999999996 8.5 l0 4.96 l3.96 0 c3.38 0 3.36 -4.96 0 -4.96 l-3.96 0 z M52.48 5.98 c6.84 0 6.86 9.9 0 9.9 l-3.96 0 l0 4.12 l-2.64 0 l0 -14 c2.2 0 4.4 -0.02 6.6 -0.02 z M69.84 17.4 l0 2.6 l-10.48 0 l0 -14 l10.48 0 l0 2.56 l-7.86 0 l0 3.22 l7.58 0 l0 2.46 l-7.58 0 l0 3.16 l7.86 0 z M84.30000000000001 19.82 l0 0.18 l-3.14 0 l-4.08 -4.68 l-2.54 0 l0 4.68 l-2.64 0 l0 -14.02 c2.22 0 4.44 0.02 6.66 0.02 c3.3 0.02 5.04 2.22 5.04 4.64 c0 1.92 -0.88 3.86 -3.54 4.4 z M78.56 8.46 l-4.02 0 l0 4.48 l4.02 0 c1.68 0 2.4 -1.12 2.4 -2.24 s-0.74 -2.24 -2.4 -2.24 z"/></g>
			</g>
		</svg>
	